<mxfile host="app.diagrams.net" agent="Mozilla/5.0 (Windows NT 10.0; Win64; x64) AppleWebKit/537.36 (KHTML, like Gecko) Chrome/131.0.0.0 Safari/537.36" version="26.0.4">
  <diagram name="Page-1" id="Hwi1fNaqo8JP1balL63i">
    <mxGraphModel dx="880" dy="472" grid="1" gridSize="10" guides="1" tooltips="1" connect="1" arrows="1" fold="1" page="1" pageScale="1" pageWidth="827" pageHeight="1169" math="0" shadow="0">
      <root>
        <mxCell id="0" />
        <mxCell id="1" parent="0" />
        <mxCell id="IrPFv3voYpljfImgcOHk-1" value="2.3" style="ellipse;whiteSpace=wrap;html=1;aspect=fixed;fillColor=#fff2cc;strokeColor=#d6b656;" parent="1" vertex="1">
          <mxGeometry x="140" y="130" width="70" height="70" as="geometry" />
        </mxCell>
        <mxCell id="IrPFv3voYpljfImgcOHk-2" value="1" style="ellipse;whiteSpace=wrap;html=1;aspect=fixed;fillColor=#fff2cc;strokeColor=#d6b656;" parent="1" vertex="1">
          <mxGeometry x="140" y="40" width="70" height="70" as="geometry" />
        </mxCell>
        <mxCell id="IrPFv3voYpljfImgcOHk-3" value="3" style="ellipse;whiteSpace=wrap;html=1;aspect=fixed;fillColor=#fff2cc;strokeColor=#d6b656;" parent="1" vertex="1">
          <mxGeometry x="140" y="230" width="70" height="70" as="geometry" />
        </mxCell>
        <mxCell id="IrPFv3voYpljfImgcOHk-4" value="0.5" style="ellipse;whiteSpace=wrap;html=1;aspect=fixed;fillColor=#fff2cc;strokeColor=#d6b656;" parent="1" vertex="1">
          <mxGeometry x="140" y="320" width="70" height="70" as="geometry" />
        </mxCell>
        <mxCell id="IrPFv3voYpljfImgcOHk-5" value="5.42" style="ellipse;whiteSpace=wrap;html=1;aspect=fixed;fillColor=#d5e8d4;strokeColor=#82b366;" parent="1" vertex="1">
          <mxGeometry x="350" y="100" width="70" height="70" as="geometry" />
        </mxCell>
        <mxCell id="IrPFv3voYpljfImgcOHk-6" value="3.56" style="ellipse;whiteSpace=wrap;html=1;aspect=fixed;fillColor=#d5e8d4;strokeColor=#82b366;" parent="1" vertex="1">
          <mxGeometry x="350" y="200" width="70" height="70" as="geometry" />
        </mxCell>
        <mxCell id="IrPFv3voYpljfImgcOHk-7" value="5.63" style="ellipse;whiteSpace=wrap;html=1;aspect=fixed;fillColor=#d5e8d4;strokeColor=#82b366;" parent="1" vertex="1">
          <mxGeometry x="350" y="300" width="70" height="70" as="geometry" />
        </mxCell>
        <mxCell id="IrPFv3voYpljfImgcOHk-8" value="" style="endArrow=classic;html=1;rounded=0;entryX=0;entryY=0.5;entryDx=0;entryDy=0;" parent="1" target="IrPFv3voYpljfImgcOHk-5" edge="1">
          <mxGeometry width="50" height="50" relative="1" as="geometry">
            <mxPoint x="210" y="355" as="sourcePoint" />
            <mxPoint x="440" y="220" as="targetPoint" />
          </mxGeometry>
        </mxCell>
        <mxCell id="8TVGG8yuJ8eVY67_873t-10" value="0.6" style="edgeLabel;html=1;align=center;verticalAlign=middle;resizable=0;points=[];" parent="IrPFv3voYpljfImgcOHk-8" vertex="1" connectable="0">
          <mxGeometry x="-0.5359" y="2" relative="1" as="geometry">
            <mxPoint y="1" as="offset" />
          </mxGeometry>
        </mxCell>
        <mxCell id="IrPFv3voYpljfImgcOHk-9" value="" style="endArrow=classic;html=1;rounded=0;exitX=1;exitY=0.5;exitDx=0;exitDy=0;entryX=0;entryY=0.5;entryDx=0;entryDy=0;" parent="1" source="IrPFv3voYpljfImgcOHk-4" target="IrPFv3voYpljfImgcOHk-6" edge="1">
          <mxGeometry width="50" height="50" relative="1" as="geometry">
            <mxPoint x="390" y="270" as="sourcePoint" />
            <mxPoint x="440" y="220" as="targetPoint" />
          </mxGeometry>
        </mxCell>
        <mxCell id="8TVGG8yuJ8eVY67_873t-11" value="0.4" style="edgeLabel;html=1;align=center;verticalAlign=middle;resizable=0;points=[];" parent="IrPFv3voYpljfImgcOHk-9" vertex="1" connectable="0">
          <mxGeometry x="-0.5224" y="-1" relative="1" as="geometry">
            <mxPoint as="offset" />
          </mxGeometry>
        </mxCell>
        <mxCell id="IrPFv3voYpljfImgcOHk-10" value="" style="endArrow=classic;html=1;rounded=0;exitX=1;exitY=0.5;exitDx=0;exitDy=0;entryX=0;entryY=0.5;entryDx=0;entryDy=0;" parent="1" source="IrPFv3voYpljfImgcOHk-4" target="IrPFv3voYpljfImgcOHk-7" edge="1">
          <mxGeometry width="50" height="50" relative="1" as="geometry">
            <mxPoint x="390" y="270" as="sourcePoint" />
            <mxPoint x="440" y="220" as="targetPoint" />
          </mxGeometry>
        </mxCell>
        <mxCell id="8TVGG8yuJ8eVY67_873t-12" value="0.6" style="edgeLabel;html=1;align=center;verticalAlign=middle;resizable=0;points=[];" parent="IrPFv3voYpljfImgcOHk-10" vertex="1" connectable="0">
          <mxGeometry x="-0.484" y="1" relative="1" as="geometry">
            <mxPoint x="1" as="offset" />
          </mxGeometry>
        </mxCell>
        <mxCell id="IrPFv3voYpljfImgcOHk-11" value="" style="endArrow=classic;html=1;rounded=0;exitX=1;exitY=0.5;exitDx=0;exitDy=0;entryX=0;entryY=0.5;entryDx=0;entryDy=0;" parent="1" source="IrPFv3voYpljfImgcOHk-2" target="IrPFv3voYpljfImgcOHk-5" edge="1">
          <mxGeometry width="50" height="50" relative="1" as="geometry">
            <mxPoint x="390" y="270" as="sourcePoint" />
            <mxPoint x="440" y="220" as="targetPoint" />
          </mxGeometry>
        </mxCell>
        <mxCell id="8TVGG8yuJ8eVY67_873t-1" value="0.5" style="edgeLabel;html=1;align=center;verticalAlign=middle;resizable=0;points=[];" parent="IrPFv3voYpljfImgcOHk-11" vertex="1" connectable="0">
          <mxGeometry x="-0.2103" y="2" relative="1" as="geometry">
            <mxPoint as="offset" />
          </mxGeometry>
        </mxCell>
        <mxCell id="IrPFv3voYpljfImgcOHk-12" value="" style="endArrow=classic;html=1;rounded=0;exitX=1;exitY=0.5;exitDx=0;exitDy=0;entryX=0;entryY=0.5;entryDx=0;entryDy=0;" parent="1" source="IrPFv3voYpljfImgcOHk-1" target="IrPFv3voYpljfImgcOHk-5" edge="1">
          <mxGeometry width="50" height="50" relative="1" as="geometry">
            <mxPoint x="390" y="270" as="sourcePoint" />
            <mxPoint x="440" y="220" as="targetPoint" />
          </mxGeometry>
        </mxCell>
        <mxCell id="8TVGG8yuJ8eVY67_873t-4" value="0.4" style="edgeLabel;html=1;align=center;verticalAlign=middle;resizable=0;points=[];" parent="IrPFv3voYpljfImgcOHk-12" vertex="1" connectable="0">
          <mxGeometry x="-0.7063" y="3" relative="1" as="geometry">
            <mxPoint as="offset" />
          </mxGeometry>
        </mxCell>
        <mxCell id="IrPFv3voYpljfImgcOHk-13" value="" style="endArrow=classic;html=1;rounded=0;exitX=1;exitY=0.5;exitDx=0;exitDy=0;entryX=0;entryY=0.5;entryDx=0;entryDy=0;" parent="1" source="IrPFv3voYpljfImgcOHk-3" target="IrPFv3voYpljfImgcOHk-5" edge="1">
          <mxGeometry width="50" height="50" relative="1" as="geometry">
            <mxPoint x="390" y="270" as="sourcePoint" />
            <mxPoint x="440" y="220" as="targetPoint" />
          </mxGeometry>
        </mxCell>
        <mxCell id="8TVGG8yuJ8eVY67_873t-7" value="0.9" style="edgeLabel;html=1;align=center;verticalAlign=middle;resizable=0;points=[];" parent="IrPFv3voYpljfImgcOHk-13" vertex="1" connectable="0">
          <mxGeometry x="-0.6444" relative="1" as="geometry">
            <mxPoint as="offset" />
          </mxGeometry>
        </mxCell>
        <mxCell id="IrPFv3voYpljfImgcOHk-14" value="" style="endArrow=classic;html=1;rounded=0;exitX=1;exitY=0.5;exitDx=0;exitDy=0;entryX=0;entryY=0.5;entryDx=0;entryDy=0;" parent="1" source="IrPFv3voYpljfImgcOHk-1" target="IrPFv3voYpljfImgcOHk-6" edge="1">
          <mxGeometry width="50" height="50" relative="1" as="geometry">
            <mxPoint x="390" y="270" as="sourcePoint" />
            <mxPoint x="440" y="220" as="targetPoint" />
          </mxGeometry>
        </mxCell>
        <mxCell id="8TVGG8yuJ8eVY67_873t-5" value="0.2" style="edgeLabel;html=1;align=center;verticalAlign=middle;resizable=0;points=[];" parent="IrPFv3voYpljfImgcOHk-14" vertex="1" connectable="0">
          <mxGeometry x="-0.6971" y="2" relative="1" as="geometry">
            <mxPoint as="offset" />
          </mxGeometry>
        </mxCell>
        <mxCell id="IrPFv3voYpljfImgcOHk-15" value="" style="endArrow=classic;html=1;rounded=0;exitX=1;exitY=0.5;exitDx=0;exitDy=0;entryX=0;entryY=0.5;entryDx=0;entryDy=0;" parent="1" source="IrPFv3voYpljfImgcOHk-1" target="IrPFv3voYpljfImgcOHk-7" edge="1">
          <mxGeometry width="50" height="50" relative="1" as="geometry">
            <mxPoint x="390" y="270" as="sourcePoint" />
            <mxPoint x="440" y="220" as="targetPoint" />
          </mxGeometry>
        </mxCell>
        <mxCell id="8TVGG8yuJ8eVY67_873t-6" value="0.1" style="edgeLabel;html=1;align=center;verticalAlign=middle;resizable=0;points=[];" parent="IrPFv3voYpljfImgcOHk-15" vertex="1" connectable="0">
          <mxGeometry x="-0.7163" relative="1" as="geometry">
            <mxPoint as="offset" />
          </mxGeometry>
        </mxCell>
        <mxCell id="IrPFv3voYpljfImgcOHk-16" value="" style="endArrow=classic;html=1;rounded=0;exitX=1;exitY=0.5;exitDx=0;exitDy=0;" parent="1" source="IrPFv3voYpljfImgcOHk-3" edge="1">
          <mxGeometry width="50" height="50" relative="1" as="geometry">
            <mxPoint x="390" y="270" as="sourcePoint" />
            <mxPoint x="350" y="240" as="targetPoint" />
          </mxGeometry>
        </mxCell>
        <mxCell id="8TVGG8yuJ8eVY67_873t-8" value="0.1" style="edgeLabel;html=1;align=center;verticalAlign=middle;resizable=0;points=[];" parent="IrPFv3voYpljfImgcOHk-16" vertex="1" connectable="0">
          <mxGeometry x="-0.6" relative="1" as="geometry">
            <mxPoint as="offset" />
          </mxGeometry>
        </mxCell>
        <mxCell id="IrPFv3voYpljfImgcOHk-17" value="" style="endArrow=classic;html=1;rounded=0;exitX=1;exitY=0.5;exitDx=0;exitDy=0;entryX=0;entryY=0.5;entryDx=0;entryDy=0;" parent="1" source="IrPFv3voYpljfImgcOHk-3" target="IrPFv3voYpljfImgcOHk-7" edge="1">
          <mxGeometry width="50" height="50" relative="1" as="geometry">
            <mxPoint x="520" y="230" as="sourcePoint" />
            <mxPoint x="570" y="180" as="targetPoint" />
          </mxGeometry>
        </mxCell>
        <mxCell id="8TVGG8yuJ8eVY67_873t-9" value="0.5" style="edgeLabel;html=1;align=center;verticalAlign=middle;resizable=0;points=[];" parent="IrPFv3voYpljfImgcOHk-17" vertex="1" connectable="0">
          <mxGeometry x="-0.7029" relative="1" as="geometry">
            <mxPoint as="offset" />
          </mxGeometry>
        </mxCell>
        <mxCell id="IrPFv3voYpljfImgcOHk-18" value="" style="endArrow=classic;html=1;rounded=0;entryX=0;entryY=0.5;entryDx=0;entryDy=0;" parent="1" target="IrPFv3voYpljfImgcOHk-6" edge="1">
          <mxGeometry width="50" height="50" relative="1" as="geometry">
            <mxPoint x="210" y="75" as="sourcePoint" />
            <mxPoint x="440" y="220" as="targetPoint" />
          </mxGeometry>
        </mxCell>
        <mxCell id="8TVGG8yuJ8eVY67_873t-2" value="0.6" style="edgeLabel;html=1;align=center;verticalAlign=middle;resizable=0;points=[];" parent="IrPFv3voYpljfImgcOHk-18" vertex="1" connectable="0">
          <mxGeometry x="-0.4088" y="3" relative="1" as="geometry">
            <mxPoint as="offset" />
          </mxGeometry>
        </mxCell>
        <mxCell id="IrPFv3voYpljfImgcOHk-19" value="" style="endArrow=classic;html=1;rounded=0;exitX=1;exitY=0.5;exitDx=0;exitDy=0;entryX=0;entryY=0.5;entryDx=0;entryDy=0;" parent="1" source="IrPFv3voYpljfImgcOHk-2" target="IrPFv3voYpljfImgcOHk-7" edge="1">
          <mxGeometry width="50" height="50" relative="1" as="geometry">
            <mxPoint x="390" y="270" as="sourcePoint" />
            <mxPoint x="440" y="220" as="targetPoint" />
          </mxGeometry>
        </mxCell>
        <mxCell id="8TVGG8yuJ8eVY67_873t-3" value="0.6" style="edgeLabel;html=1;align=center;verticalAlign=middle;resizable=0;points=[];" parent="IrPFv3voYpljfImgcOHk-19" vertex="1" connectable="0">
          <mxGeometry x="-0.5092" relative="1" as="geometry">
            <mxPoint y="1" as="offset" />
          </mxGeometry>
        </mxCell>
        <mxCell id="8TVGG8yuJ8eVY67_873t-13" value="&lt;font style=&quot;font-size: 14px;&quot;&gt;1 * 0.5 + 2.3 * 0.4 + 3 * 0.9 + 0.5 * 0.6 + 1 = 5.42&lt;/font&gt;" style="text;html=1;align=center;verticalAlign=middle;resizable=0;points=[];autosize=1;strokeColor=none;fillColor=none;" parent="1" vertex="1">
          <mxGeometry x="320" y="60" width="320" height="30" as="geometry" />
        </mxCell>
      </root>
    </mxGraphModel>
  </diagram>
</mxfile>
